<svg width="46" height="47" viewBox="0 0 46 47" fill="none" xmlns="http://www.w3.org/2000/svg">
<path d="M39.1473 6.70121C37.0358 4.56908 34.521 2.87852 31.7496 1.72804C28.9782 0.577566 26.0055 -0.00981714 23.0048 0.000124109C10.4316 0.000124109 0.184223 10.2475 0.184223 22.8207C0.184223 26.8505 1.2435 30.7653 3.22389 34.2194L0 46.0557L12.0896 42.8779C15.4286 44.6971 19.1822 45.6642 23.0048 45.6642C35.5779 45.6642 45.8253 35.4169 45.8253 22.8437C45.8253 16.7413 43.4535 11.0074 39.1473 6.70121ZM23.0048 41.7956C19.5967 41.7956 16.2576 40.8745 13.3331 39.1474L12.6423 38.7329L5.45759 40.6212L7.3689 33.6207L6.90834 32.9069C5.01441 29.8834 4.00897 26.3883 4.00684 22.8207C4.00684 12.3661 12.5271 3.84577 22.9817 3.84577C28.0479 3.84577 32.8146 5.82616 36.3839 9.41849C38.1516 11.1775 39.5524 13.27 40.505 15.5746C41.4577 17.8792 41.9433 20.35 41.9336 22.8437C41.9797 33.2983 33.4594 41.7956 23.0048 41.7956ZM33.4133 27.6105C32.8376 27.3341 30.0282 25.9525 29.5216 25.7452C28.992 25.561 28.6236 25.4689 28.2321 26.0215C27.8406 26.5972 26.7583 27.8868 26.4359 28.2552C26.1135 28.6467 25.7681 28.6928 25.1924 28.3934C24.6167 28.1171 22.7745 27.4953 20.6099 25.561C18.9058 24.0411 17.7775 22.1759 17.432 21.6002C17.1097 21.0245 17.386 20.7251 17.6853 20.4258C17.9387 20.1725 18.261 19.758 18.5374 19.4356C18.8137 19.1132 18.9289 18.8599 19.1131 18.4914C19.2973 18.1 19.2052 17.7776 19.067 17.5013C18.9288 17.2249 17.7775 14.4155 17.3169 13.2641C16.8563 12.1588 16.3728 12.297 16.0273 12.2739H14.922C14.5305 12.2739 13.9318 12.4121 13.4022 12.9878C12.8956 13.5635 11.4218 14.9452 11.4218 17.7546C11.4218 20.5639 13.4713 23.2812 13.7476 23.6497C14.0239 24.0411 17.7775 29.7981 23.4884 32.2621C24.847 32.8608 25.9063 33.2062 26.7353 33.4595C28.0939 33.897 29.3374 33.828 30.3276 33.6898C31.4329 33.5286 33.7127 32.3081 34.1732 30.9725C34.6568 29.6369 34.6568 28.5085 34.4956 28.2552C34.3344 28.0019 33.989 27.8868 33.4133 27.6105Z" fill="url(#paint0_linear_73_234)"/>
<defs>
<linearGradient id="paint0_linear_73_234" x1="22.9127" y1="0" x2="22.9127" y2="46.0557" gradientUnits="userSpaceOnUse">
<stop stop-color="#DEE0FF"/>
<stop offset="1" stop-color="#DFE1FF"/>
</linearGradient>
</defs>
</svg>
