<svg width="250" height="203" viewBox="0 0 250 203" fill="none" xmlns="http://www.w3.org/2000/svg">
<g filter="url(#filter0_ddddd_73_76)">
<g filter="url(#filter1_ddddd_73_76)">
<path d="M80.7978 18.156C80.1132 18.156 79.4806 18.0347 78.9 17.792C78.3281 17.5407 77.8255 17.1898 77.3922 16.7392C76.9676 16.2886 76.6383 15.76 76.4043 15.1534C76.1704 14.5468 76.0534 13.8839 76.0534 13.1646C76.0534 12.4367 76.1704 11.7695 76.4043 11.1629C76.6383 10.5563 76.9676 10.0277 77.3922 9.57707C77.8168 9.12647 78.3194 8.77984 78.9 8.53721C79.4806 8.28591 80.1132 8.16026 80.7978 8.16026C81.465 8.16026 82.0629 8.27724 82.5915 8.51121C83.1288 8.74518 83.5794 9.04848 83.9434 9.42109C84.316 9.79371 84.5803 10.1923 84.7363 10.6169L83.5664 11.1499C83.3411 10.6126 82.9902 10.1793 82.5136 9.85004C82.037 9.51208 81.465 9.3431 80.7978 9.3431C80.1219 9.3431 79.5196 9.50342 78.991 9.82404C78.4711 10.1447 78.0638 10.5909 77.7692 11.1629C77.4745 11.7348 77.3272 12.402 77.3272 13.1646C77.3272 13.9185 77.4745 14.5814 77.7692 15.1534C78.0638 15.7253 78.4711 16.1716 78.991 16.4922C79.5196 16.8128 80.1219 16.9731 80.7978 16.9731C81.465 16.9731 82.037 16.8085 82.5136 16.4792C82.9902 16.1412 83.3411 15.7036 83.5664 15.1664L84.7363 15.6993C84.5803 16.1239 84.316 16.5225 83.9434 16.8951C83.5794 17.2678 83.1288 17.5711 82.5915 17.805C82.0629 18.039 81.465 18.156 80.7978 18.156ZM89.2666 18.156C88.5907 18.156 87.9798 18 87.4338 17.688C86.8879 17.3674 86.4546 16.9298 86.134 16.3752C85.8134 15.8206 85.6531 15.1924 85.6531 14.4904C85.6531 13.7885 85.809 13.1646 86.121 12.6187C86.4416 12.0728 86.8749 11.6395 87.4208 11.3189C87.9668 10.9982 88.582 10.8379 89.2666 10.8379C89.9425 10.8379 90.5534 10.9982 91.0994 11.3189C91.6453 11.6308 92.0742 12.0598 92.3862 12.6057C92.7068 13.1516 92.8671 13.7799 92.8671 14.4904C92.8671 15.201 92.7025 15.8336 92.3732 16.3882C92.0439 16.9341 91.6063 17.3674 91.0604 17.688C90.5231 18 89.9252 18.156 89.2666 18.156ZM89.2666 16.9861C89.6999 16.9861 90.0898 16.8778 90.4365 16.6612C90.7917 16.4445 91.069 16.1456 91.2683 15.7643C91.4763 15.383 91.5803 14.9584 91.5803 14.4904C91.5803 14.0138 91.4763 13.5936 91.2683 13.2296C91.069 12.857 90.7917 12.5624 90.4365 12.3457C90.0898 12.1204 89.6999 12.0078 89.2666 12.0078C88.8247 12.0078 88.426 12.1204 88.0708 12.3457C87.7241 12.5624 87.4468 12.857 87.2389 13.2296C87.0309 13.5936 86.9269 14.0138 86.9269 14.4904C86.9269 14.9584 87.0309 15.383 87.2389 15.7643C87.4468 16.1456 87.7241 16.4445 88.0708 16.6612C88.426 16.8778 88.8247 16.9861 89.2666 16.9861ZM94.1838 18V10.9939H95.3667V12.4237L95.1977 12.2027C95.371 11.7608 95.6483 11.4228 96.0296 11.1889C96.4109 10.9549 96.8398 10.8379 97.3164 10.8379C97.8624 10.8379 98.352 10.9896 98.7852 11.2929C99.2272 11.5961 99.5305 11.9948 99.6951 12.4887L99.3572 12.5017C99.5392 11.9558 99.8468 11.5442 100.28 11.2669C100.713 10.9809 101.194 10.8379 101.723 10.8379C102.208 10.8379 102.646 10.9506 103.036 11.1759C103.434 11.4012 103.751 11.7131 103.985 12.1118C104.219 12.5104 104.336 12.961 104.336 13.4636V18H103.114V13.8535C103.114 13.4636 103.044 13.1343 102.906 12.8657C102.767 12.597 102.576 12.389 102.334 12.2417C102.1 12.0858 101.823 12.0078 101.502 12.0078C101.19 12.0078 100.908 12.0858 100.657 12.2417C100.414 12.389 100.219 12.6014 100.072 12.8787C99.9334 13.1473 99.8641 13.4722 99.8641 13.8535V18H98.6423V13.8535C98.6423 13.4636 98.5729 13.1343 98.4343 12.8657C98.2956 12.597 98.105 12.389 97.8624 12.2417C97.6284 12.0858 97.3511 12.0078 97.0305 12.0078C96.7185 12.0078 96.4369 12.0858 96.1856 12.2417C95.9429 12.389 95.748 12.6014 95.6007 12.8787C95.462 13.1473 95.3927 13.4722 95.3927 13.8535V18H94.1838ZM108.275 18.156C107.773 18.156 107.318 18.039 106.91 17.805C106.512 17.5711 106.2 17.2461 105.974 16.8301C105.758 16.4055 105.649 15.9203 105.649 15.3743V10.9939H106.858V15.2444C106.858 15.591 106.928 15.8943 107.066 16.1542C107.214 16.4142 107.413 16.6178 107.664 16.7652C107.924 16.9125 108.219 16.9861 108.548 16.9861C108.877 16.9861 109.168 16.9125 109.419 16.7652C109.679 16.6178 109.878 16.4055 110.017 16.1282C110.164 15.8509 110.238 15.5216 110.238 15.1404V10.9939H111.46V18H110.277V16.6352L110.472 16.7522C110.307 17.1941 110.026 17.5407 109.627 17.792C109.237 18.0347 108.786 18.156 108.275 18.156ZM113.073 18V10.9939H114.255V12.3587L114.06 12.2417C114.234 11.7998 114.511 11.4575 114.892 11.2149C115.282 10.9636 115.737 10.8379 116.257 10.8379C116.76 10.8379 117.206 10.9506 117.596 11.1759C117.995 11.4012 118.307 11.7131 118.532 12.1118C118.766 12.5104 118.883 12.961 118.883 13.4636V18H117.661V13.8535C117.661 13.4636 117.592 13.1343 117.453 12.8657C117.314 12.597 117.115 12.389 116.855 12.2417C116.604 12.0858 116.313 12.0078 115.984 12.0078C115.655 12.0078 115.36 12.0858 115.1 12.2417C114.849 12.389 114.65 12.6014 114.502 12.8787C114.355 13.1473 114.281 13.4722 114.281 13.8535V18H113.073ZM120.353 18V10.9939H121.561V18H120.353ZM120.353 9.87604V8.31623H121.561V9.87604H120.353ZM126.427 18.156C125.742 18.156 125.131 17.9957 124.594 17.675C124.065 17.3544 123.65 16.9168 123.346 16.3622C123.043 15.8076 122.891 15.1837 122.891 14.4904C122.891 13.7885 123.043 13.1646 123.346 12.6187C123.65 12.0728 124.065 11.6395 124.594 11.3189C125.131 10.9982 125.742 10.8379 126.427 10.8379C126.886 10.8379 127.315 10.9202 127.714 11.0849C128.112 11.2495 128.463 11.4705 128.767 11.7478C129.07 12.0251 129.291 12.3501 129.429 12.7227L128.351 13.2426C128.186 12.8787 127.935 12.584 127.597 12.3587C127.259 12.1247 126.869 12.0078 126.427 12.0078C126.002 12.0078 125.617 12.1161 125.27 12.3327C124.932 12.5494 124.663 12.844 124.464 13.2166C124.265 13.5892 124.165 14.0182 124.165 14.5034C124.165 14.9714 124.265 15.396 124.464 15.7773C124.663 16.1499 124.932 16.4445 125.27 16.6612C125.617 16.8778 126.002 16.9861 126.427 16.9861C126.869 16.9861 127.259 16.8735 127.597 16.6482C127.935 16.4142 128.186 16.1066 128.351 15.7253L129.429 16.2712C129.291 16.6352 129.07 16.9601 128.767 17.2461C128.463 17.5234 128.112 17.7444 127.714 17.909C127.315 18.0737 126.886 18.156 126.427 18.156ZM132.714 18.156C132.255 18.156 131.848 18.0737 131.492 17.909C131.146 17.7357 130.873 17.5017 130.673 17.2071C130.474 16.9038 130.374 16.5572 130.374 16.1672C130.374 15.7946 130.452 15.461 130.608 15.1664C130.773 14.8631 131.024 14.6074 131.362 14.3995C131.709 14.1915 132.142 14.0442 132.662 13.9575L135.262 13.5286V14.5424L132.935 14.9324C132.485 15.0104 132.155 15.1534 131.947 15.3613C131.748 15.5693 131.648 15.8249 131.648 16.1282C131.648 16.4142 131.761 16.6525 131.986 16.8431C132.22 17.0338 132.511 17.1291 132.857 17.1291C133.299 17.1291 133.68 17.0381 134.001 16.8561C134.33 16.6655 134.586 16.4099 134.768 16.0892C134.959 15.7686 135.054 15.4133 135.054 15.0234V13.2426C135.054 12.8613 134.911 12.5537 134.625 12.3197C134.348 12.0771 133.979 11.9558 133.52 11.9558C133.121 11.9558 132.766 12.0598 132.454 12.2677C132.151 12.467 131.926 12.7357 131.778 13.0736L130.725 12.5277C130.855 12.2071 131.063 11.9211 131.349 11.6698C131.635 11.4098 131.969 11.2062 132.35 11.0589C132.731 10.9116 133.13 10.8379 133.546 10.8379C134.083 10.8379 134.556 10.9419 134.963 11.1499C135.37 11.3492 135.686 11.6308 135.912 11.9948C136.146 12.3501 136.263 12.766 136.263 13.2426V18H135.08V16.6742L135.301 16.7522C135.154 17.0295 134.954 17.2721 134.703 17.4801C134.452 17.688 134.157 17.8527 133.819 17.974C133.481 18.0953 133.113 18.156 132.714 18.156ZM141.127 18.156C140.442 18.156 139.831 17.9957 139.294 17.675C138.765 17.3544 138.349 16.9168 138.046 16.3622C137.743 15.8076 137.591 15.1837 137.591 14.4904C137.591 13.7885 137.743 13.1646 138.046 12.6187C138.349 12.0728 138.765 11.6395 139.294 11.3189C139.831 10.9982 140.442 10.8379 141.127 10.8379C141.586 10.8379 142.015 10.9202 142.413 11.0849C142.812 11.2495 143.163 11.4705 143.466 11.7478C143.77 12.0251 143.991 12.3501 144.129 12.7227L143.05 13.2426C142.886 12.8787 142.634 12.584 142.296 12.3587C141.959 12.1247 141.569 12.0078 141.127 12.0078C140.702 12.0078 140.316 12.1161 139.97 12.3327C139.632 12.5494 139.363 12.844 139.164 13.2166C138.965 13.5892 138.865 14.0182 138.865 14.5034C138.865 14.9714 138.965 15.396 139.164 15.7773C139.363 16.1499 139.632 16.4445 139.97 16.6612C140.316 16.8778 140.702 16.9861 141.127 16.9861C141.569 16.9861 141.959 16.8735 142.296 16.6482C142.634 16.4142 142.886 16.1066 143.05 15.7253L144.129 16.2712C143.991 16.6352 143.77 16.9601 143.466 17.2461C143.163 17.5234 142.812 17.7444 142.413 17.909C142.015 18.0737 141.586 18.156 141.127 18.156ZM141.283 21.0156C141.04 21.0156 140.789 20.9723 140.529 20.8856C140.269 20.8076 140.056 20.6993 139.892 20.5607L140.191 19.7678C140.321 19.8804 140.468 19.9671 140.633 20.0277C140.797 20.0884 140.958 20.1187 141.114 20.1187C141.304 20.1187 141.456 20.0711 141.569 19.9757C141.681 19.8891 141.738 19.7721 141.738 19.6248C141.738 19.4342 141.638 19.2825 141.439 19.1699C141.239 19.0659 140.923 18.9879 140.49 18.9359L140.789 17.87H141.582L141.439 18.4549C141.889 18.5416 142.231 18.6932 142.465 18.9099C142.708 19.1265 142.829 19.3908 142.829 19.7028C142.829 20.0927 142.682 20.409 142.387 20.6517C142.102 20.8943 141.733 21.0156 141.283 21.0156ZM147.414 18.156C146.955 18.156 146.547 18.0737 146.192 17.909C145.846 17.7357 145.573 17.5017 145.373 17.2071C145.174 16.9038 145.074 16.5572 145.074 16.1672C145.074 15.7946 145.152 15.461 145.308 15.1664C145.473 14.8631 145.724 14.6074 146.062 14.3995C146.409 14.1915 146.842 14.0442 147.362 13.9575L149.962 13.5286V14.5424L147.635 14.9324C147.184 15.0104 146.855 15.1534 146.647 15.3613C146.448 15.5693 146.348 15.8249 146.348 16.1282C146.348 16.4142 146.461 16.6525 146.686 16.8431C146.92 17.0338 147.21 17.1291 147.557 17.1291C147.999 17.1291 148.38 17.0381 148.701 16.8561C149.03 16.6655 149.286 16.4099 149.468 16.0892C149.658 15.7686 149.754 15.4133 149.754 15.0234V13.2426C149.754 12.8613 149.611 12.5537 149.325 12.3197C149.047 12.0771 148.679 11.9558 148.22 11.9558C147.821 11.9558 147.466 12.0598 147.154 12.2677C146.851 12.467 146.625 12.7357 146.478 13.0736L145.425 12.5277C145.555 12.2071 145.763 11.9211 146.049 11.6698C146.335 11.4098 146.669 11.2062 147.05 11.0589C147.431 10.9116 147.83 10.8379 148.246 10.8379C148.783 10.8379 149.255 10.9419 149.663 11.1499C150.07 11.3492 150.386 11.6308 150.612 11.9948C150.846 12.3501 150.963 12.766 150.963 13.2426V18H149.78V16.6742L150.001 16.7522C149.853 17.0295 149.654 17.2721 149.403 17.4801C149.151 17.688 148.857 17.8527 148.519 17.974C148.181 18.0953 147.813 18.156 147.414 18.156ZM149.078 9.68106C148.844 9.68106 148.653 9.64207 148.506 9.56408C148.367 9.48609 148.246 9.3951 148.142 9.29111C148.038 9.18712 147.934 9.09614 147.83 9.01815C147.726 8.94016 147.6 8.90116 147.453 8.90116C147.314 8.90116 147.202 8.95749 147.115 9.07014C147.037 9.17413 146.998 9.36044 146.998 9.62907H146.023C146.023 9.04847 146.149 8.6152 146.4 8.32923C146.66 8.0346 146.994 7.88729 147.401 7.88729C147.635 7.88729 147.826 7.92628 147.973 8.00427C148.12 8.08226 148.246 8.17325 148.35 8.27724C148.454 8.38123 148.553 8.47221 148.649 8.5502C148.753 8.6282 148.878 8.66719 149.026 8.66719C149.182 8.66719 149.303 8.60653 149.39 8.48521C149.476 8.35523 149.52 8.17325 149.52 7.93928H150.482C150.482 8.47655 150.352 8.90116 150.092 9.21312C149.832 9.52508 149.494 9.68106 149.078 9.68106ZM155.904 18.156C155.229 18.156 154.618 18 154.072 17.688C153.526 17.3674 153.092 16.9298 152.772 16.3752C152.451 15.8206 152.291 15.1924 152.291 14.4904C152.291 13.7885 152.447 13.1646 152.759 12.6187C153.079 12.0728 153.513 11.6395 154.059 11.3189C154.605 10.9982 155.22 10.8379 155.904 10.8379C156.58 10.8379 157.191 10.9982 157.737 11.3189C158.283 11.6308 158.712 12.0598 159.024 12.6057C159.345 13.1516 159.505 13.7799 159.505 14.4904C159.505 15.201 159.34 15.8336 159.011 16.3882C158.682 16.9341 158.244 17.3674 157.698 17.688C157.161 18 156.563 18.156 155.904 18.156ZM155.904 16.9861C156.338 16.9861 156.728 16.8778 157.074 16.6612C157.43 16.4445 157.707 16.1456 157.906 15.7643C158.114 15.383 158.218 14.9584 158.218 14.4904C158.218 14.0138 158.114 13.5936 157.906 13.2296C157.707 12.857 157.43 12.5624 157.074 12.3457C156.728 12.1204 156.338 12.0078 155.904 12.0078C155.462 12.0078 155.064 12.1204 154.709 12.3457C154.362 12.5624 154.085 12.857 153.877 13.2296C153.669 13.5936 153.565 14.0138 153.565 14.4904C153.565 14.9584 153.669 15.383 153.877 15.7643C154.085 16.1456 154.362 16.4445 154.709 16.6612C155.064 16.8778 155.462 16.9861 155.904 16.9861ZM162.808 20.5997V10.9939H163.991V12.5017L163.835 12.2027C164.095 11.7868 164.451 11.4575 164.901 11.2149C165.352 10.9636 165.867 10.8379 166.448 10.8379C167.107 10.8379 167.696 10.9982 168.216 11.3189C168.744 11.6395 169.16 12.0771 169.464 12.6317C169.767 13.1776 169.919 13.8015 169.919 14.5034C169.919 15.188 169.767 15.8076 169.464 16.3622C169.16 16.9168 168.744 17.3544 168.216 17.675C167.696 17.9957 167.102 18.156 166.435 18.156C165.872 18.156 165.356 18.0303 164.888 17.779C164.429 17.5277 164.074 17.1724 163.822 16.7132L164.017 16.5052V20.5997H162.808ZM166.344 16.9861C166.786 16.9861 167.18 16.8778 167.527 16.6612C167.873 16.4445 168.142 16.1499 168.333 15.7773C168.532 15.396 168.632 14.9714 168.632 14.5034C168.632 14.0182 168.532 13.5936 168.333 13.2296C168.142 12.857 167.873 12.5624 167.527 12.3457C167.18 12.1204 166.786 12.0078 166.344 12.0078C165.902 12.0078 165.503 12.1161 165.148 12.3327C164.802 12.5494 164.524 12.8483 164.316 13.2296C164.117 13.6022 164.017 14.0268 164.017 14.5034C164.017 14.9714 164.117 15.396 164.316 15.7773C164.524 16.1499 164.802 16.4445 165.148 16.6612C165.503 16.8778 165.902 16.9861 166.344 16.9861ZM173.297 18.156C172.838 18.156 172.431 18.0737 172.076 17.909C171.729 17.7357 171.456 17.5017 171.257 17.2071C171.057 16.9038 170.958 16.5572 170.958 16.1672C170.958 15.7946 171.036 15.461 171.192 15.1664C171.356 14.8631 171.608 14.6074 171.946 14.3995C172.292 14.1915 172.725 14.0442 173.245 13.9575L175.845 13.5286V14.5424L173.518 14.9324C173.068 15.0104 172.738 15.1534 172.531 15.3613C172.331 15.5693 172.232 15.8249 172.232 16.1282C172.232 16.4142 172.344 16.6525 172.57 16.8431C172.803 17.0338 173.094 17.1291 173.44 17.1291C173.882 17.1291 174.264 17.0381 174.584 16.8561C174.914 16.6655 175.169 16.4099 175.351 16.0892C175.542 15.7686 175.637 15.4133 175.637 15.0234V13.2426C175.637 12.8613 175.494 12.5537 175.208 12.3197C174.931 12.0771 174.563 11.9558 174.103 11.9558C173.705 11.9558 173.349 12.0598 173.037 12.2677C172.734 12.467 172.509 12.7357 172.362 13.0736L171.309 12.5277C171.439 12.2071 171.647 11.9211 171.933 11.6698C172.219 11.4098 172.552 11.2062 172.933 11.0589C173.315 10.9116 173.713 10.8379 174.129 10.8379C174.667 10.8379 175.139 10.9419 175.546 11.1499C175.953 11.3492 176.27 11.6308 176.495 11.9948C176.729 12.3501 176.846 12.766 176.846 13.2426V18H175.663V16.6742L175.884 16.7522C175.737 17.0295 175.537 17.2721 175.286 17.4801C175.035 17.688 174.74 17.8527 174.402 17.974C174.064 18.0953 173.696 18.156 173.297 18.156ZM178.46 18V10.9939H179.643V12.2807L179.513 12.0988C179.678 11.7001 179.929 11.4055 180.267 11.2149C180.605 11.0156 181.017 10.9159 181.502 10.9159H181.931V12.0598H181.32C180.826 12.0598 180.427 12.2157 180.124 12.5277C179.821 12.831 179.669 13.2643 179.669 13.8275V18H178.46ZM184.798 18.156C184.339 18.156 183.932 18.0737 183.577 17.909C183.23 17.7357 182.957 17.5017 182.758 17.2071C182.558 16.9038 182.459 16.5572 182.459 16.1672C182.459 15.7946 182.537 15.461 182.693 15.1664C182.857 14.8631 183.109 14.6074 183.447 14.3995C183.793 14.1915 184.226 14.0442 184.746 13.9575L187.346 13.5286V14.5424L185.019 14.9324C184.569 15.0104 184.239 15.1534 184.032 15.3613C183.832 15.5693 183.733 15.8249 183.733 16.1282C183.733 16.4142 183.845 16.6525 184.071 16.8431C184.304 17.0338 184.595 17.1291 184.941 17.1291C185.383 17.1291 185.765 17.0381 186.085 16.8561C186.415 16.6655 186.67 16.4099 186.852 16.0892C187.043 15.7686 187.138 15.4133 187.138 15.0234V13.2426C187.138 12.8613 186.995 12.5537 186.709 12.3197C186.432 12.0771 186.064 11.9558 185.604 11.9558C185.206 11.9558 184.85 12.0598 184.538 12.2677C184.235 12.467 184.01 12.7357 183.863 13.0736L182.81 12.5277C182.94 12.2071 183.148 11.9211 183.434 11.6698C183.72 11.4098 184.053 11.2062 184.434 11.0589C184.816 10.9116 185.214 10.8379 185.63 10.8379C186.168 10.8379 186.64 10.9419 187.047 11.1499C187.454 11.3492 187.771 11.6308 187.996 11.9948C188.23 12.3501 188.347 12.766 188.347 13.2426V18H187.164V16.6742L187.385 16.7522C187.238 17.0295 187.038 17.2721 186.787 17.4801C186.536 17.688 186.241 17.8527 185.903 17.974C185.565 18.0953 185.197 18.156 184.798 18.156ZM79.5109 37.8596C78.9997 37.8596 78.5274 37.7773 78.0941 37.6127C77.6608 37.448 77.2882 37.2184 76.9763 36.9238C76.6643 36.6378 76.4303 36.2998 76.2744 35.9099L77.6262 35.351C77.7475 35.6802 77.9685 35.9532 78.2891 36.1699C78.6184 36.3865 79.0213 36.4948 79.4979 36.4948C79.8706 36.4948 80.2042 36.4212 80.4988 36.2738C80.7934 36.1352 81.0274 35.9272 81.2007 35.6499C81.374 35.3813 81.4607 35.0563 81.4607 34.675V33.0892L81.7207 33.3882C81.478 33.8388 81.1401 34.1811 80.7068 34.4151C80.2822 34.649 79.8012 34.766 79.264 34.766C78.6141 34.766 78.0291 34.6144 77.5092 34.3111C76.9893 34.0078 76.5776 33.5918 76.2744 33.0632C75.9797 32.5346 75.8324 31.9411 75.8324 31.2825C75.8324 30.6152 75.9797 30.0216 76.2744 29.5017C76.5776 28.9818 76.9849 28.5702 77.4962 28.2669C78.0075 27.9636 78.5924 27.8119 79.251 27.8119C79.7882 27.8119 80.2648 27.9289 80.6808 28.1629C81.1054 28.3882 81.452 28.7175 81.7207 29.1507L81.5257 29.5147V27.9679H82.9165V34.675C82.9165 35.2816 82.7692 35.8232 82.4746 36.2998C82.1886 36.7851 81.79 37.1664 81.2787 37.4437C80.7674 37.721 80.1782 37.8596 79.5109 37.8596ZM79.433 33.4012C79.8229 33.4012 80.1695 33.3102 80.4728 33.1282C80.7761 32.9376 81.0144 32.6863 81.1877 32.3743C81.3697 32.0537 81.4607 31.6941 81.4607 31.2955C81.4607 30.8969 81.3697 30.5372 81.1877 30.2166C81.0058 29.896 80.7631 29.6447 80.4598 29.4627C80.1565 29.2721 79.8142 29.1767 79.433 29.1767C79.0343 29.1767 78.679 29.2721 78.3671 29.4627C78.0551 29.6447 77.8082 29.896 77.6262 30.2166C77.4529 30.5286 77.3662 30.8882 77.3662 31.2955C77.3662 31.6854 77.4529 32.0407 77.6262 32.3613C77.8082 32.682 78.0551 32.9376 78.3671 33.1282C78.679 33.3102 79.0343 33.4012 79.433 33.4012ZM87.7684 35.156C87.0925 35.156 86.4729 34.9957 85.9097 34.675C85.3551 34.3544 84.9131 33.9168 84.5838 33.3622C84.2546 32.8076 84.0899 32.1794 84.0899 31.4774C84.0899 30.7669 84.2546 30.1386 84.5838 29.5927C84.9131 29.0381 85.3551 28.6048 85.9097 28.2929C86.4643 27.9722 87.0839 27.8119 87.7684 27.8119C88.4617 27.8119 89.0813 27.9722 89.6272 28.2929C90.1818 28.6048 90.6194 29.0381 90.94 29.5927C91.2693 30.1386 91.434 30.7669 91.434 31.4774C91.434 32.188 91.2693 32.8206 90.94 33.3752C90.6107 33.9298 90.1688 34.3674 89.6142 34.688C89.0596 35 88.4444 35.156 87.7684 35.156ZM87.7684 33.7912C88.1844 33.7912 88.5527 33.6915 88.8733 33.4922C89.1939 33.2929 89.4452 33.0199 89.6272 32.6733C89.8178 32.318 89.9132 31.9194 89.9132 31.4774C89.9132 31.0355 89.8178 30.6412 89.6272 30.2946C89.4452 29.948 89.1939 29.675 88.8733 29.4757C88.5527 29.2764 88.1844 29.1767 87.7684 29.1767C87.3612 29.1767 86.9929 29.2764 86.6636 29.4757C86.343 29.675 86.0873 29.948 85.8967 30.2946C85.7147 30.6412 85.6237 31.0355 85.6237 31.4774C85.6237 31.9194 85.7147 32.318 85.8967 32.6733C86.0873 33.0199 86.343 33.2929 86.6636 33.4922C86.9929 33.6915 87.3612 33.7912 87.7684 33.7912ZM94.5218 35L91.7661 27.9679H93.3649L95.4837 33.7002H94.8987L97.0175 27.9679H98.6293L95.8606 35H94.5218ZM102.542 35.156C101.84 35.156 101.216 34.9957 100.671 34.675C100.133 34.3458 99.713 33.9038 99.4097 33.3492C99.1064 32.7859 98.9547 32.1577 98.9547 31.4645C98.9547 30.7539 99.1064 30.1256 99.4097 29.5797C99.7216 29.0338 100.138 28.6048 100.658 28.2929C101.177 27.9722 101.767 27.8119 102.425 27.8119C102.954 27.8119 103.426 27.9029 103.842 28.0849C104.258 28.2669 104.609 28.5182 104.895 28.8388C105.181 29.1507 105.398 29.5104 105.545 29.9176C105.701 30.3249 105.779 30.7582 105.779 31.2175C105.779 31.3301 105.775 31.4471 105.766 31.5684C105.757 31.6898 105.74 31.8024 105.714 31.9064H100.112V30.7365H104.882L104.18 31.2695C104.267 30.8449 104.236 30.4679 104.089 30.1386C103.95 29.8007 103.734 29.5364 103.439 29.3457C103.153 29.1464 102.815 29.0468 102.425 29.0468C102.035 29.0468 101.689 29.1464 101.385 29.3457C101.082 29.5364 100.848 29.8137 100.684 30.1776C100.519 30.5329 100.454 30.9662 100.489 31.4774C100.445 31.9541 100.51 32.37 100.684 32.7253C100.865 33.0806 101.117 33.3579 101.437 33.5572C101.767 33.7565 102.139 33.8561 102.555 33.8561C102.98 33.8561 103.34 33.7608 103.634 33.5702C103.937 33.3795 104.176 33.1326 104.349 32.8293L105.545 33.4142C105.406 33.7435 105.19 34.0425 104.895 34.3111C104.609 34.5711 104.262 34.779 103.855 34.935C103.456 35.0823 103.019 35.156 102.542 35.156ZM106.952 35V27.9679H108.356V29.3847L108.226 29.1767C108.382 28.7175 108.633 28.3882 108.98 28.1889C109.327 27.9809 109.743 27.8769 110.228 27.8769H110.657V29.2157H110.046C109.561 29.2157 109.166 29.3674 108.863 29.6707C108.568 29.9653 108.421 30.3899 108.421 30.9445V35H106.952ZM111.402 35V27.9679H112.806V29.3457L112.637 29.1637C112.81 28.7218 113.087 28.3882 113.468 28.1629C113.85 27.9289 114.292 27.8119 114.794 27.8119C115.314 27.8119 115.774 27.9246 116.172 28.1499C116.571 28.3752 116.883 28.6871 117.108 29.0858C117.333 29.4844 117.446 29.9436 117.446 30.4636V35H115.99V30.8535C115.99 30.4982 115.925 30.1993 115.795 29.9566C115.665 29.7053 115.479 29.5147 115.236 29.3847C115.002 29.2461 114.734 29.1767 114.43 29.1767C114.127 29.1767 113.854 29.2461 113.611 29.3847C113.378 29.5147 113.196 29.7053 113.066 29.9566C112.936 30.2079 112.871 30.5069 112.871 30.8535V35H111.402ZM122.151 35.156C121.475 35.156 120.855 34.9957 120.292 34.675C119.737 34.3544 119.295 33.9168 118.966 33.3622C118.637 32.8076 118.472 32.1794 118.472 31.4774C118.472 30.7669 118.637 30.1386 118.966 29.5927C119.295 29.0381 119.737 28.6048 120.292 28.2929C120.846 27.9722 121.466 27.8119 122.151 27.8119C122.844 27.8119 123.463 27.9722 124.009 28.2929C124.564 28.6048 125.002 29.0381 125.322 29.5927C125.651 30.1386 125.816 30.7669 125.816 31.4774C125.816 32.188 125.651 32.8206 125.322 33.3752C124.993 33.9298 124.551 34.3674 123.996 34.688C123.442 35 122.826 35.156 122.151 35.156ZM122.151 33.7912C122.567 33.7912 122.935 33.6915 123.255 33.4922C123.576 33.2929 123.827 33.0199 124.009 32.6733C124.2 32.318 124.295 31.9194 124.295 31.4774C124.295 31.0355 124.2 30.6412 124.009 30.2946C123.827 29.948 123.576 29.675 123.255 29.4757C122.935 29.2764 122.567 29.1767 122.151 29.1767C121.743 29.1767 121.375 29.2764 121.046 29.4757C120.725 29.675 120.469 29.948 120.279 30.2946C120.097 30.6412 120.006 31.0355 120.006 31.4774C120.006 31.9194 120.097 32.318 120.279 32.6733C120.469 33.0199 120.725 33.2929 121.046 33.4922C121.375 33.6915 121.743 33.7912 122.151 33.7912ZM129.59 35.156C128.871 35.156 128.238 34.9783 127.692 34.623C127.155 34.2678 126.778 33.7912 126.561 33.1932L127.692 32.6603C127.883 33.0589 128.143 33.3752 128.472 33.6092C128.81 33.8431 129.183 33.9601 129.59 33.9601C129.936 33.9601 130.218 33.8821 130.435 33.7262C130.651 33.5702 130.76 33.3579 130.76 33.0892C130.76 32.9159 130.712 32.7773 130.617 32.6733C130.521 32.5606 130.4 32.4697 130.253 32.4003C130.114 32.331 129.971 32.279 129.824 32.2444L128.719 31.9324C128.112 31.7591 127.657 31.4991 127.354 31.1525C127.059 30.7972 126.912 30.3856 126.912 29.9176C126.912 29.493 127.02 29.1247 127.237 28.8128C127.454 28.4922 127.753 28.2452 128.134 28.0719C128.515 27.8986 128.944 27.8119 129.421 27.8119C130.062 27.8119 130.634 27.9722 131.137 28.2929C131.639 28.6048 131.994 29.0424 132.202 29.6057L131.072 30.1386C130.933 29.8007 130.712 29.532 130.409 29.3327C130.114 29.1334 129.78 29.0338 129.408 29.0338C129.087 29.0338 128.832 29.1118 128.641 29.2677C128.45 29.415 128.355 29.61 128.355 29.8527C128.355 30.0173 128.398 30.156 128.485 30.2686C128.572 30.3726 128.684 30.4592 128.823 30.5286C128.962 30.5892 129.105 30.6412 129.252 30.6846L130.396 31.0225C130.976 31.1872 131.423 31.4471 131.735 31.8024C132.046 32.149 132.202 32.565 132.202 33.0502C132.202 33.4662 132.09 33.8345 131.865 34.1551C131.648 34.4671 131.345 34.714 130.955 34.896C130.565 35.0693 130.11 35.156 129.59 35.156ZM138.695 35.156C137.994 35.156 137.37 34.9957 136.824 34.675C136.286 34.3458 135.866 33.9038 135.563 33.3492C135.26 32.7859 135.108 32.1577 135.108 31.4645C135.108 30.7539 135.26 30.1256 135.563 29.5797C135.875 29.0338 136.291 28.6048 136.811 28.2929C137.331 27.9722 137.92 27.8119 138.578 27.8119C139.107 27.8119 139.579 27.9029 139.995 28.0849C140.411 28.2669 140.762 28.5182 141.048 28.8388C141.334 29.1507 141.551 29.5104 141.698 29.9176C141.854 30.3249 141.932 30.7582 141.932 31.2175C141.932 31.3301 141.928 31.4471 141.919 31.5684C141.91 31.6898 141.893 31.8024 141.867 31.9064H136.265V30.7365H141.035L140.333 31.2695C140.42 30.8449 140.39 30.4679 140.242 30.1386C140.104 29.8007 139.887 29.5364 139.592 29.3457C139.306 29.1464 138.968 29.0468 138.578 29.0468C138.188 29.0468 137.842 29.1464 137.539 29.3457C137.235 29.5364 137.001 29.8137 136.837 30.1776C136.672 30.5329 136.607 30.9662 136.642 31.4774C136.598 31.9541 136.663 32.37 136.837 32.7253C137.019 33.0806 137.27 33.3579 137.591 33.5572C137.92 33.7565 138.292 33.8561 138.708 33.8561C139.133 33.8561 139.493 33.7608 139.787 33.5702C140.091 33.3795 140.329 33.1326 140.502 32.8293L141.698 33.4142C141.559 33.7435 141.343 34.0425 141.048 34.3111C140.762 34.5711 140.416 34.779 140.008 34.935C139.61 35.0823 139.172 35.156 138.695 35.156ZM145.118 35V27.9679H146.587V35H145.118ZM145.118 27.006V25.3162H146.587V27.006H145.118ZM148.044 35V27.9679H149.448V29.3457L149.279 29.1637C149.452 28.7218 149.729 28.3882 150.111 28.1629C150.492 27.9289 150.934 27.8119 151.436 27.8119C151.956 27.8119 152.416 27.9246 152.814 28.1499C153.213 28.3752 153.525 28.6871 153.75 29.0858C153.975 29.4844 154.088 29.9436 154.088 30.4636V35H152.632V30.8535C152.632 30.4982 152.567 30.1993 152.437 29.9566C152.307 29.7053 152.121 29.5147 151.878 29.3847C151.644 29.2461 151.376 29.1767 151.073 29.1767C150.769 29.1767 150.496 29.2461 150.254 29.3847C150.02 29.5147 149.838 29.7053 149.708 29.9566C149.578 30.2079 149.513 30.5069 149.513 30.8535V35H148.044ZM158 35.156C157.281 35.156 156.648 34.9783 156.102 34.623C155.565 34.2678 155.188 33.7912 154.971 33.1932L156.102 32.6603C156.293 33.0589 156.553 33.3752 156.882 33.6092C157.22 33.8431 157.593 33.9601 158 33.9601C158.346 33.9601 158.628 33.8821 158.845 33.7262C159.061 33.5702 159.17 33.3579 159.17 33.0892C159.17 32.9159 159.122 32.7773 159.027 32.6733C158.931 32.5606 158.81 32.4697 158.663 32.4003C158.524 32.331 158.381 32.279 158.234 32.2444L157.129 31.9324C156.522 31.7591 156.067 31.4991 155.764 31.1525C155.469 30.7972 155.322 30.3856 155.322 29.9176C155.322 29.493 155.43 29.1247 155.647 28.8128C155.864 28.4922 156.163 28.2452 156.544 28.0719C156.925 27.8986 157.354 27.8119 157.831 27.8119C158.472 27.8119 159.044 27.9722 159.547 28.2929C160.049 28.6048 160.404 29.0424 160.612 29.6057L159.482 30.1386C159.343 29.8007 159.122 29.532 158.819 29.3327C158.524 29.1334 158.19 29.0338 157.818 29.0338C157.497 29.0338 157.242 29.1118 157.051 29.2677C156.86 29.415 156.765 29.61 156.765 29.8527C156.765 30.0173 156.808 30.156 156.895 30.2686C156.982 30.3726 157.094 30.4592 157.233 30.5286C157.372 30.5892 157.515 30.6412 157.662 30.6846L158.806 31.0225C159.386 31.1872 159.833 31.4471 160.145 31.8024C160.456 32.149 160.612 32.565 160.612 33.0502C160.612 33.4662 160.5 33.8345 160.275 34.1551C160.058 34.4671 159.755 34.714 159.365 34.896C158.975 35.0693 158.52 35.156 158 35.156ZM164.833 35.078C164.097 35.078 163.525 34.87 163.117 34.4541C162.71 34.0381 162.507 33.4532 162.507 32.6993V29.2937H161.272V27.9679H161.467C161.796 27.9679 162.052 27.8726 162.234 27.6819C162.416 27.4913 162.507 27.2313 162.507 26.902V26.3561H163.975V27.9679H165.574V29.2937H163.975V32.6343C163.975 32.8769 164.014 33.0849 164.092 33.2582C164.17 33.4229 164.296 33.5529 164.469 33.6482C164.643 33.7348 164.868 33.7782 165.145 33.7782C165.215 33.7782 165.293 33.7738 165.379 33.7652C165.466 33.7565 165.548 33.7478 165.626 33.7392V35C165.505 35.0173 165.371 35.0347 165.223 35.052C165.076 35.0693 164.946 35.078 164.833 35.078ZM166.8 35V27.9679H168.268V35H166.8ZM166.8 27.006V25.3162H168.268V27.006H166.8ZM172.767 35.078C172.031 35.078 171.459 34.87 171.052 34.4541C170.644 34.0381 170.441 33.4532 170.441 32.6993V29.2937H169.206V27.9679H169.401C169.73 27.9679 169.986 27.8726 170.168 27.6819C170.35 27.4913 170.441 27.2313 170.441 26.902V26.3561H171.909V27.9679H173.508V29.2937H171.909V32.6343C171.909 32.8769 171.948 33.0849 172.026 33.2582C172.104 33.4229 172.23 33.5529 172.403 33.6482C172.577 33.7348 172.802 33.7782 173.079 33.7782C173.149 33.7782 173.227 33.7738 173.313 33.7652C173.4 33.7565 173.482 33.7478 173.56 33.7392V35C173.439 35.0173 173.305 35.0347 173.157 35.052C173.01 35.0693 172.88 35.078 172.767 35.078ZM177.242 35.156C176.714 35.156 176.25 35.039 175.852 34.805C175.453 34.5624 175.141 34.2288 174.916 33.8042C174.699 33.3709 174.591 32.8726 174.591 32.3093V27.9679H176.059V32.1794C176.059 32.5 176.124 32.7816 176.254 33.0243C176.384 33.2669 176.566 33.4575 176.8 33.5962C177.034 33.7262 177.303 33.7912 177.606 33.7912C177.918 33.7912 178.191 33.7218 178.425 33.5832C178.659 33.4445 178.841 33.2496 178.971 32.9983C179.11 32.747 179.179 32.4523 179.179 32.1144V27.9679H180.635V35H179.244V33.6222L179.4 33.8042C179.235 34.2374 178.962 34.5711 178.581 34.805C178.2 35.039 177.754 35.156 177.242 35.156ZM182.09 35V27.9679H183.559V35H182.09ZM182.09 27.006V25.3162H183.559V27.006H182.09ZM188.357 35.156C187.655 35.156 187.031 34.9957 186.485 34.675C185.948 34.3458 185.519 33.9038 185.198 33.3492C184.886 32.7946 184.73 32.1664 184.73 31.4645C184.73 30.7712 184.886 30.1473 185.198 29.5927C185.51 29.0381 185.939 28.6048 186.485 28.2929C187.031 27.9722 187.655 27.8119 188.357 27.8119C188.833 27.8119 189.279 27.8986 189.695 28.0719C190.111 28.2365 190.471 28.4662 190.774 28.7608C191.086 29.0554 191.316 29.3977 191.463 29.7877L190.176 30.3856C190.029 30.0216 189.791 29.7313 189.461 29.5147C189.141 29.2894 188.773 29.1767 188.357 29.1767C187.958 29.1767 187.598 29.2764 187.278 29.4757C186.966 29.6663 186.719 29.9393 186.537 30.2946C186.355 30.6412 186.264 31.0355 186.264 31.4774C186.264 31.9194 186.355 32.318 186.537 32.6733C186.719 33.0199 186.966 33.2929 187.278 33.4922C187.598 33.6915 187.958 33.7912 188.357 33.7912C188.781 33.7912 189.15 33.6828 189.461 33.4662C189.782 33.2409 190.02 32.9419 190.176 32.5693L191.463 33.1802C191.325 33.5529 191.099 33.8908 190.787 34.1941C190.484 34.4887 190.124 34.7227 189.708 34.896C189.292 35.0693 188.842 35.156 188.357 35.156ZM188.5 38.0546C188.257 38.0546 188.001 38.0156 187.733 37.9376C187.464 37.8596 187.239 37.747 187.057 37.5997L187.395 36.7158C187.525 36.8198 187.668 36.8978 187.824 36.9498C187.988 37.0104 188.149 37.0407 188.305 37.0407C188.495 37.0407 188.643 36.9974 188.747 36.9108C188.859 36.8241 188.916 36.7071 188.916 36.5598C188.916 36.3865 188.812 36.2478 188.604 36.1439C188.404 36.0399 188.092 35.9662 187.668 35.9229L187.954 34.87H188.864L188.721 35.4289C189.18 35.4983 189.531 35.6413 189.773 35.8579C190.025 36.0745 190.15 36.3475 190.15 36.6768C190.15 37.0841 189.999 37.4134 189.695 37.6647C189.392 37.9246 188.994 38.0546 188.5 38.0546ZM196.031 35.156C195.356 35.156 194.736 34.9957 194.173 34.675C193.618 34.3544 193.176 33.9168 192.847 33.3622C192.518 32.8076 192.353 32.1794 192.353 31.4774C192.353 30.7669 192.518 30.1386 192.847 29.5927C193.176 29.0381 193.618 28.6048 194.173 28.2929C194.727 27.9722 195.347 27.8119 196.031 27.8119C196.725 27.8119 197.344 27.9722 197.89 28.2929C198.445 28.6048 198.882 29.0381 199.203 29.5927C199.532 30.1386 199.697 30.7669 199.697 31.4774C199.697 32.188 199.532 32.8206 199.203 33.3752C198.874 33.9298 198.432 34.3674 197.877 34.688C197.323 35 196.707 35.156 196.031 35.156ZM196.031 33.7912C196.447 33.7912 196.816 33.6915 197.136 33.4922C197.457 33.2929 197.708 33.0199 197.89 32.6733C198.081 32.318 198.176 31.9194 198.176 31.4774C198.176 31.0355 198.081 30.6412 197.89 30.2946C197.708 29.948 197.457 29.675 197.136 29.4757C196.816 29.2764 196.447 29.1767 196.031 29.1767C195.624 29.1767 195.256 29.2764 194.927 29.4757C194.606 29.675 194.35 29.948 194.16 30.2946C193.978 30.6412 193.887 31.0355 193.887 31.4774C193.887 31.9194 193.978 32.318 194.16 32.6733C194.35 33.0199 194.606 33.2929 194.927 33.4922C195.256 33.6915 195.624 33.7912 196.031 33.7912ZM196.928 26.6811C196.694 26.6811 196.499 26.6421 196.343 26.5641C196.196 26.4861 196.066 26.3994 195.953 26.3041C195.849 26.2088 195.741 26.1221 195.628 26.0441C195.524 25.9662 195.399 25.9272 195.252 25.9272C195.104 25.9272 194.992 25.9835 194.914 26.0961C194.836 26.2088 194.797 26.3864 194.797 26.6291H193.64C193.64 25.9878 193.783 25.5155 194.069 25.2122C194.355 24.9003 194.71 24.7443 195.135 24.7443C195.377 24.7443 195.572 24.7833 195.719 24.8613C195.875 24.9306 196.01 25.0173 196.122 25.1213C196.235 25.2166 196.343 25.3032 196.447 25.3812C196.56 25.4506 196.686 25.4852 196.824 25.4852C196.989 25.4852 197.106 25.4246 197.175 25.3032C197.253 25.1819 197.292 25.0129 197.292 24.7963H198.436C198.436 25.4029 198.289 25.8708 197.994 26.2001C197.708 26.5207 197.353 26.6811 196.928 26.6811ZM204.173 35.156C203.471 35.156 202.847 34.9957 202.301 34.675C201.764 34.3458 201.343 33.9038 201.04 33.3492C200.737 32.7859 200.585 32.1577 200.585 31.4645C200.585 30.7539 200.737 30.1256 201.04 29.5797C201.352 29.0338 201.768 28.6048 202.288 28.2929C202.808 27.9722 203.397 27.8119 204.056 27.8119C204.584 27.8119 205.056 27.9029 205.472 28.0849C205.888 28.2669 206.239 28.5182 206.525 28.8388C206.811 29.1507 207.028 29.5104 207.175 29.9176C207.331 30.3249 207.409 30.7582 207.409 31.2175C207.409 31.3301 207.405 31.4471 207.396 31.5684C207.387 31.6898 207.37 31.8024 207.344 31.9064H201.742V30.7365H206.512L205.81 31.2695C205.897 30.8449 205.867 30.4679 205.719 30.1386C205.581 29.8007 205.364 29.5364 205.069 29.3457C204.783 29.1464 204.446 29.0468 204.056 29.0468C203.666 29.0468 203.319 29.1464 203.016 29.3457C202.712 29.5364 202.478 29.8137 202.314 30.1776C202.149 30.5329 202.084 30.9662 202.119 31.4774C202.075 31.9541 202.14 32.37 202.314 32.7253C202.496 33.0806 202.747 33.3579 203.068 33.5572C203.397 33.7565 203.77 33.8561 204.186 33.8561C204.61 33.8561 204.97 33.7608 205.264 33.5702C205.568 33.3795 205.806 33.1326 205.979 32.8293L207.175 33.4142C207.037 33.7435 206.82 34.0425 206.525 34.3111C206.239 34.5711 205.893 34.779 205.485 34.935C205.087 35.0823 204.649 35.156 204.173 35.156ZM211.182 35.156C210.463 35.156 209.83 34.9783 209.285 34.623C208.747 34.2678 208.37 33.7912 208.154 33.1932L209.285 32.6603C209.475 33.0589 209.735 33.3752 210.064 33.6092C210.402 33.8431 210.775 33.9601 211.182 33.9601C211.529 33.9601 211.811 33.8821 212.027 33.7262C212.244 33.5702 212.352 33.3579 212.352 33.0892C212.352 32.9159 212.304 32.7773 212.209 32.6733C212.114 32.5606 211.993 32.4697 211.845 32.4003C211.707 32.331 211.564 32.279 211.416 32.2444L210.311 31.9324C209.705 31.7591 209.25 31.4991 208.947 31.1525C208.652 30.7972 208.505 30.3856 208.505 29.9176C208.505 29.493 208.613 29.1247 208.83 28.8128C209.046 28.4922 209.345 28.2452 209.726 28.0719C210.108 27.8986 210.537 27.8119 211.013 27.8119C211.655 27.8119 212.227 27.9722 212.729 28.2929C213.232 28.6048 213.587 29.0424 213.795 29.6057L212.664 30.1386C212.525 29.8007 212.304 29.532 212.001 29.3327C211.707 29.1334 211.373 29.0338 211 29.0338C210.68 29.0338 210.424 29.1118 210.233 29.2677C210.043 29.415 209.947 29.61 209.947 29.8527C209.947 30.0173 209.991 30.156 210.077 30.2686C210.164 30.3726 210.277 30.4592 210.415 30.5286C210.554 30.5892 210.697 30.6412 210.844 30.6846L211.988 31.0225C212.569 31.1872 213.015 31.4471 213.327 31.8024C213.639 32.149 213.795 32.565 213.795 33.0502C213.795 33.4662 213.682 33.8345 213.457 34.1551C213.24 34.4671 212.937 34.714 212.547 34.896C212.157 35.0693 211.702 35.156 211.182 35.156Z" fill="white"/>
</g>
<path d="M39.5661 6.21908C38.6182 6.21908 37.7091 6.60559 37.0388 7.2933C36.3685 7.98113 35.9919 8.91431 35.9919 9.88705V28.2249C35.9919 29.1977 36.3685 30.1309 37.0388 30.8187C37.7091 31.5064 38.6182 31.8929 39.5661 31.8929H60.8152C60.9433 31.8929 61.069 31.9306 61.1765 32.0003L67.1364 35.8685C67.5779 36.1547 68.1609 35.838 68.1609 35.3119V9.88705C68.1609 8.91431 67.7843 7.98113 67.114 7.2933C66.4437 6.60551 65.5346 6.21912 64.5866 6.21908H39.5661ZM52.0505 24.5736C52.6645 24.5736 53.1626 25.0842 53.1628 25.7142C53.1628 26.3443 52.6646 26.8558 52.0505 26.8558H52.0417C51.4277 26.8557 50.9304 26.3442 50.9304 25.7142C50.9306 25.0843 51.4278 24.5737 52.0417 24.5736H52.0505ZM52.0466 20.1058C53.3621 20.1058 54.6451 20.5252 55.7175 21.307C56.218 21.6718 56.3356 22.3841 55.9802 22.8978C55.6245 23.4115 54.93 23.5323 54.4294 23.1673C53.7333 22.6599 52.9005 22.3871 52.0466 22.387C51.1925 22.387 50.359 22.6598 49.6628 23.1673C49.1622 23.5321 48.4686 23.4114 48.113 22.8978C47.7574 22.3841 47.8751 21.6719 48.3757 21.307C49.4481 20.5253 50.7312 20.1058 52.0466 20.1058ZM52.0163 15.637C54.5169 15.6372 56.9386 16.5359 58.8601 18.1781C59.3319 18.5813 59.3957 19.3013 59.0027 19.7855C58.6097 20.2694 57.909 20.335 57.4372 19.932C55.9153 18.6312 53.997 17.9184 52.0163 17.9183C50.0355 17.9183 48.1165 18.6311 46.5945 19.932C46.1227 20.3349 45.422 20.2694 45.029 19.7855C44.636 19.3013 44.6998 18.5813 45.1716 18.1781C47.0932 16.5358 49.5155 15.637 52.0163 15.637ZM52.0505 11.1683C55.7149 11.1683 59.2538 12.5394 62.0027 15.0257C62.4633 15.4423 62.5072 16.1634 62.1013 16.6361C61.6952 17.1088 60.9926 17.1543 60.532 16.7376C58.1893 14.6187 55.1734 13.4495 52.0505 13.4495C48.9276 13.4496 45.9117 14.6187 43.5691 16.7376C43.1084 17.1542 42.4058 17.1087 41.9997 16.6361C41.594 16.1634 41.6388 15.4423 42.0993 15.0257C44.8481 12.5396 48.3864 11.1683 52.0505 11.1683Z" fill="#BBDFC5"/>
</g>
<defs>
<filter id="filter0_ddddd_73_76" x="-0.00808716" y="-2" width="258.008" height="204.055" filterUnits="userSpaceOnUse" color-interpolation-filters="sRGB">
<feFlood flood-opacity="0" result="BackgroundImageFix"/>
<feColorMatrix in="SourceAlpha" type="matrix" values="0 0 0 0 0 0 0 0 0 0 0 0 0 0 0 0 0 0 127 0" result="hardAlpha"/>
<feOffset dy="5"/>
<feGaussianBlur stdDeviation="5.5"/>
<feColorMatrix type="matrix" values="0 0 0 0 0 0 0 0 0 0 0 0 0 0 0 0 0 0 0.56 0"/>
<feBlend mode="normal" in2="BackgroundImageFix" result="effect1_dropShadow_73_76"/>
<feColorMatrix in="SourceAlpha" type="matrix" values="0 0 0 0 0 0 0 0 0 0 0 0 0 0 0 0 0 0 127 0" result="hardAlpha"/>
<feOffset dy="20"/>
<feGaussianBlur stdDeviation="10"/>
<feColorMatrix type="matrix" values="0 0 0 0 0 0 0 0 0 0 0 0 0 0 0 0 0 0 0.49 0"/>
<feBlend mode="normal" in2="effect1_dropShadow_73_76" result="effect2_dropShadow_73_76"/>
<feColorMatrix in="SourceAlpha" type="matrix" values="0 0 0 0 0 0 0 0 0 0 0 0 0 0 0 0 0 0 127 0" result="hardAlpha"/>
<feOffset dy="46"/>
<feGaussianBlur stdDeviation="14"/>
<feColorMatrix type="matrix" values="0 0 0 0 0 0 0 0 0 0 0 0 0 0 0 0 0 0 0.29 0"/>
<feBlend mode="normal" in2="effect2_dropShadow_73_76" result="effect3_dropShadow_73_76"/>
<feColorMatrix in="SourceAlpha" type="matrix" values="0 0 0 0 0 0 0 0 0 0 0 0 0 0 0 0 0 0 127 0" result="hardAlpha"/>
<feOffset dy="82"/>
<feGaussianBlur stdDeviation="16.5"/>
<feColorMatrix type="matrix" values="0 0 0 0 0 0 0 0 0 0 0 0 0 0 0 0 0 0 0.08 0"/>
<feBlend mode="normal" in2="effect3_dropShadow_73_76" result="effect4_dropShadow_73_76"/>
<feColorMatrix in="SourceAlpha" type="matrix" values="0 0 0 0 0 0 0 0 0 0 0 0 0 0 0 0 0 0 127 0" result="hardAlpha"/>
<feOffset dy="128"/>
<feGaussianBlur stdDeviation="18"/>
<feColorMatrix type="matrix" values="0 0 0 0 0 0 0 0 0 0 0 0 0 0 0 0 0 0 0.01 0"/>
<feBlend mode="normal" in2="effect4_dropShadow_73_76" result="effect5_dropShadow_73_76"/>
<feBlend mode="normal" in="SourceGraphic" in2="effect5_dropShadow_73_76" result="shape"/>
</filter>
<filter id="filter1_ddddd_73_76" x="58.8324" y="4.88729" width="171.963" height="112.167" filterUnits="userSpaceOnUse" color-interpolation-filters="sRGB">
<feFlood flood-opacity="0" result="BackgroundImageFix"/>
<feColorMatrix in="SourceAlpha" type="matrix" values="0 0 0 0 0 0 0 0 0 0 0 0 0 0 0 0 0 0 127 0" result="hardAlpha"/>
<feOffset dy="2"/>
<feGaussianBlur stdDeviation="2.5"/>
<feColorMatrix type="matrix" values="0 0 0 0 0 0 0 0 0 0 0 0 0 0 0 0 0 0 0.35 0"/>
<feBlend mode="normal" in2="BackgroundImageFix" result="effect1_dropShadow_73_76"/>
<feColorMatrix in="SourceAlpha" type="matrix" values="0 0 0 0 0 0 0 0 0 0 0 0 0 0 0 0 0 0 127 0" result="hardAlpha"/>
<feOffset dy="10"/>
<feGaussianBlur stdDeviation="5"/>
<feColorMatrix type="matrix" values="0 0 0 0 0 0 0 0 0 0 0 0 0 0 0 0 0 0 0.3 0"/>
<feBlend mode="normal" in2="effect1_dropShadow_73_76" result="effect2_dropShadow_73_76"/>
<feColorMatrix in="SourceAlpha" type="matrix" values="0 0 0 0 0 0 0 0 0 0 0 0 0 0 0 0 0 0 127 0" result="hardAlpha"/>
<feOffset dy="22"/>
<feGaussianBlur stdDeviation="6.5"/>
<feColorMatrix type="matrix" values="0 0 0 0 0 0 0 0 0 0 0 0 0 0 0 0 0 0 0.18 0"/>
<feBlend mode="normal" in2="effect2_dropShadow_73_76" result="effect3_dropShadow_73_76"/>
<feColorMatrix in="SourceAlpha" type="matrix" values="0 0 0 0 0 0 0 0 0 0 0 0 0 0 0 0 0 0 127 0" result="hardAlpha"/>
<feOffset dy="40"/>
<feGaussianBlur stdDeviation="8"/>
<feColorMatrix type="matrix" values="0 0 0 0 0 0 0 0 0 0 0 0 0 0 0 0 0 0 0.05 0"/>
<feBlend mode="normal" in2="effect3_dropShadow_73_76" result="effect4_dropShadow_73_76"/>
<feColorMatrix in="SourceAlpha" type="matrix" values="0 0 0 0 0 0 0 0 0 0 0 0 0 0 0 0 0 0 127 0" result="hardAlpha"/>
<feOffset dy="62"/>
<feGaussianBlur stdDeviation="8.5"/>
<feColorMatrix type="matrix" values="0 0 0 0 0 0 0 0 0 0 0 0 0 0 0 0 0 0 0.01 0"/>
<feBlend mode="normal" in2="effect4_dropShadow_73_76" result="effect5_dropShadow_73_76"/>
<feBlend mode="normal" in="SourceGraphic" in2="effect5_dropShadow_73_76" result="shape"/>
</filter>
</defs>
</svg>
