<svg width="45" height="37" viewBox="0 0 45 37" fill="none" xmlns="http://www.w3.org/2000/svg">
<path d="M4.5 36.1665C3.2625 36.1665 2.2035 35.7262 1.323 34.8457C0.4425 33.9653 0.0015 32.9055 0 31.6665V4.6665C0 3.429 0.441 2.37 1.323 1.4895C2.205 0.609003 3.264 0.168004 4.5 0.166504H40.5C41.7375 0.166504 42.7972 0.607503 43.6792 1.4895C44.5612 2.3715 45.0015 3.4305 45 4.6665V31.6665C45 32.904 44.5597 33.9637 43.6792 34.8457C42.7987 35.7277 41.739 36.168 40.5 36.1665H4.5ZM22.5 20.4165L4.5 9.1665V31.6665H40.5V9.1665L22.5 20.4165ZM22.5 15.9165L40.5 4.6665H4.5L22.5 15.9165ZM4.5 9.1665V4.6665V31.6665V9.1665Z" fill="url(#paint0_linear_73_228)"/>
<defs>
<linearGradient id="paint0_linear_73_228" x1="22.5" y1="0.166504" x2="22.5" y2="36.1665" gradientUnits="userSpaceOnUse">
<stop stop-color="#DEE0FF"/>
<stop offset="1" stop-color="#DFE1FF"/>
</linearGradient>
</defs>
</svg>
